HIERARCHY
ROOT hip
{
  OFFSET 0 90.174 2.4664
  CHANNELS 6 Xposition Yposition Zposition Zrotation Xrotation Yrotation
  JOINT abdomen
  {
    OFFSET 0 -1.186 -1.5018
    CHANNELS 6 Xposition Yposition Zposition Zrotation Xrotation Yrotation
    JOINT abdomen2
    {
      OFFSET 0 9.964 0.2134
      CHANNELS 6 Xposition Yposition Zposition Zrotation Xrotation Yrotation
      JOINT chest
      {
        OFFSET 0 13.134 -3.2573
        CHANNELS 6 Xposition Yposition Zposition Zrotation Xrotation Yrotation
        JOINT neck
        {
          OFFSET 0 20.686 -1.6905
          CHANNELS 6 Xposition Yposition Zposition Zrotation Xrotation Yrotation
          JOINT head
          {
            OFFSET 0 7.238 -0.1237
            CHANNELS 6 Xposition Yposition Zposition Zrotation Xrotation Yrotation
            End Site
            {
              OFFSET 0 0 0
            }
          }
        }
        JOINT lCollar
        {
          OFFSET 1.7069 20.075 5.0056
          CHANNELS 6 Xposition Yposition Zposition Zrotation Xrotation Yrotation
          JOINT lShldr
          {
            OFFSET 13.6458 -0.047 -4.849
            CHANNELS 6 Xposition Yposition Zposition Zrotation Xrotation Yrotation
            JOINT lForeArm
            {
              OFFSET 28.3255 -0.9759 2.2888
              CHANNELS 6 Xposition Yposition Zposition Zrotation Xrotation Yrotation
              JOINT lHand
              {
                OFFSET 22.1583 -0.53 10.8316
                CHANNELS 6 Xposition Yposition Zposition Zrotation Xrotation Yrotation
                JOINT lThumb1
                {
                  OFFSET 0.786 0.112 2.5817
                  CHANNELS 6 Xposition Yposition Zposition Zrotation Xrotation Yrotation
                  JOINT lThumb2
                  {
                    OFFSET 0.3601 -0.878 4.2331
                    CHANNELS 6 Xposition Yposition Zposition Zrotation Xrotation Yrotation
                    JOINT lThumb2_End
                    {
                      OFFSET 1.8127 -1.216 2.2227
                      CHANNELS 6 Xposition Yposition Zposition Zrotation Xrotation Yrotation
                      End Site
                      {
                        OFFSET 0.0181 -0.0122 0.0222
                      }
                    }
                  }
                }
                JOINT lCarpal1
                {
                  OFFSET 0.9571 1.114 1.7695
                  CHANNELS 6 Xposition Yposition Zposition Zrotation Xrotation Yrotation
                  JOINT lIndex1
                  {
                    OFFSET 4.1246 0.487 4.1451
                    CHANNELS 6 Xposition Yposition Zposition Zrotation Xrotation Yrotation
                    JOINT lIndex2
                    {
                      OFFSET 3.4052 -1.454 2.7682
                      CHANNELS 6 Xposition Yposition Zposition Zrotation Xrotation Yrotation
                      JOINT lIndex2_End
                      {
                        OFFSET 1.4531 -1.795 1.2713
                        CHANNELS 6 Xposition Yposition Zposition Zrotation Xrotation Yrotation
                        End Site
                        {
                          OFFSET 0.0145 -0.0179 0.0127
                        }
                      }
                    }
                  }
                  JOINT lMid1
                  {
                    OFFSET 5.6954 0.21 2.1184
                    CHANNELS 6 Xposition Yposition Zposition Zrotation Xrotation Yrotation
                    JOINT lMid2
                    {
                      OFFSET 3.9766 -1.54 2.3863
                      CHANNELS 6 Xposition Yposition Zposition Zrotation Xrotation Yrotation
                      JOINT lMid2_End
                      {
                        OFFSET 1.4042 -1.926 1.125
                        CHANNELS 6 Xposition Yposition Zposition Zrotation Xrotation Yrotation
                        End Site
                        {
                          OFFSET 0.014 -0.0193 0.0113
                        }
                      }
                    }
                  }
                }
                JOINT lCarpal2
                {
                  OFFSET 2.0956 0.66 -0.3894
                  CHANNELS 6 Xposition Yposition Zposition Zrotation Xrotation Yrotation
                  JOINT lRing1
                  {
                    OFFSET 5.0395 -0.09 2.4971
                    CHANNELS 6 Xposition Yposition Zposition Zrotation Xrotation Yrotation
                    JOINT lRing2
                    {
                      OFFSET 3.7921 -1.552 1.4806
                      CHANNELS 6 Xposition Yposition Zposition Zrotation Xrotation Yrotation
                      JOINT lRing2_End
                      {
                        OFFSET 1.4655 -1.808 0.9609
                        CHANNELS 6 Xposition Yposition Zposition Zrotation Xrotation Yrotation
                        End Site
                        {
                          OFFSET 0.0147 -0.0181 0.0096
                        }
                      }
                    }
                  }
                  JOINT lPinky1
                  {
                    OFFSET 4.9141 -1.269 0.3591
                    CHANNELS 6 Xposition Yposition Zposition Zrotation Xrotation Yrotation
                    JOINT lPinky2
                    {
                      OFFSET 3.1477 -1.685 0.8462
                      CHANNELS 6 Xposition Yposition Zposition Zrotation Xrotation Yrotation
                      JOINT lPinky2_End
                      {
                        OFFSET 0.8055 -1.585 0.7955
                        CHANNELS 6 Xposition Yposition Zposition Zrotation Xrotation Yrotation
                        End Site
                        {
                          OFFSET 0.0081 -0.0158 0.008
                        }
                      }
                    }
                  }
                }
              }
            }
          }
        }
        JOINT rCollar
        {
          OFFSET -1.7069 20.075 5.0056
          CHANNELS 6 Xposition Yposition Zposition Zrotation Xrotation Yrotation
          JOINT rShldr
          {
            OFFSET -13.6458 -0.047 -4.849
            CHANNELS 6 Xposition Yposition Zposition Zrotation Xrotation Yrotation
            JOINT rForeArm
            {
              OFFSET -28.3255 -0.9759 2.2888
              CHANNELS 6 Xposition Yposition Zposition Zrotation Xrotation Yrotation
              JOINT rHand
              {
                OFFSET -22.1583 -0.53 10.8316
                CHANNELS 6 Xposition Yposition Zposition Zrotation Xrotation Yrotation
                JOINT rThumb1
                {
                  OFFSET -0.786 0.112 2.5817
                  CHANNELS 6 Xposition Yposition Zposition Zrotation Xrotation Yrotation
                  JOINT rThumb2
                  {
                    OFFSET -0.3601 -0.878 4.2331
                    CHANNELS 6 Xposition Yposition Zposition Zrotation Xrotation Yrotation
                    JOINT rThumb2_End
                    {
                      OFFSET -1.8127 -1.216 2.2227
                      CHANNELS 6 Xposition Yposition Zposition Zrotation Xrotation Yrotation
                      End Site
                      {
                        OFFSET -0.0181 -0.0122 0.0222
                      }
                    }
                  }
                }
                JOINT rCarpal1
                {
                  OFFSET -0.9571 1.114 1.7695
                  CHANNELS 6 Xposition Yposition Zposition Zrotation Xrotation Yrotation
                  JOINT rIndex1
                  {
                    OFFSET -4.1246 0.487 4.1451
                    CHANNELS 6 Xposition Yposition Zposition Zrotation Xrotation Yrotation
                    JOINT rIndex2
                    {
                      OFFSET -3.4052 -1.454 2.7682
                      CHANNELS 6 Xposition Yposition Zposition Zrotation Xrotation Yrotation
                      JOINT rIndex2_End
                      {
                        OFFSET -1.4531 -1.795 1.2713
                        CHANNELS 6 Xposition Yposition Zposition Zrotation Xrotation Yrotation
                        End Site
                        {
                          OFFSET -0.0145 -0.018 0.0127
                        }
                      }
                    }
                  }
                  JOINT rMid1
                  {
                    OFFSET -5.6954 0.21 2.1184
                    CHANNELS 6 Xposition Yposition Zposition Zrotation Xrotation Yrotation
                    JOINT rMid2
                    {
                      OFFSET -3.9766 -1.54 2.3863
                      CHANNELS 6 Xposition Yposition Zposition Zrotation Xrotation Yrotation
                      JOINT rMid2_End
                      {
                        OFFSET -1.4042 -1.926 1.125
                        CHANNELS 6 Xposition Yposition Zposition Zrotation Xrotation Yrotation
                        End Site
                        {
                          OFFSET -0.014 -0.0193 0.0113
                        }
                      }
                    }
                  }
                }
                JOINT rCarpal2
                {
                  OFFSET -2.0956 0.66 -0.3894
                  CHANNELS 6 Xposition Yposition Zposition Zrotation Xrotation Yrotation
                  JOINT rRing1
                  {
                    OFFSET -5.0395 -0.09 2.4971
                    CHANNELS 6 Xposition Yposition Zposition Zrotation Xrotation Yrotation
                    JOINT rRing2
                    {
                      OFFSET -3.7921 -1.552 1.4806
                      CHANNELS 6 Xposition Yposition Zposition Zrotation Xrotation Yrotation
                      JOINT rRing2_End
                      {
                        OFFSET -1.4655 -1.808 0.9609
                        CHANNELS 6 Xposition Yposition Zposition Zrotation Xrotation Yrotation
                        End Site
                        {
                          OFFSET -0.0147 -0.0181 0.0096
                        }
                      }
                    }
                  }
                  JOINT rPinky1
                  {
                    OFFSET -4.9141 -1.269 0.3592
                    CHANNELS 6 Xposition Yposition Zposition Zrotation Xrotation Yrotation
                    JOINT rPinky2
                    {
                      OFFSET -3.1477 -1.685 0.8462
                      CHANNELS 6 Xposition Yposition Zposition Zrotation Xrotation Yrotation
                      JOINT rPinky2_End
                      {
                        OFFSET -0.8055 -1.585 0.7955
                        CHANNELS 6 Xposition Yposition Zposition Zrotation Xrotation Yrotation
                        End Site
                        {
                          OFFSET -0.0081 -0.0158 0.008
                        }
                      }
                    }
                  }
                }
              }
            }
          }
        }
      }
    }
  }
  JOINT lThigh
  {
    OFFSET 8.367 -8.2066 0.5982
    CHANNELS 6 Xposition Yposition Zposition Zrotation Xrotation Yrotation
    JOINT lShin
    {
      OFFSET 2.1923 -43.463 -0.4932
      CHANNELS 6 Xposition Yposition Zposition Zrotation Xrotation Yrotation
      JOINT lFoot
      {
        OFFSET 0.7333 -45.8593 -2.6451
        CHANNELS 6 Xposition Yposition Zposition Zrotation Xrotation Yrotation
        End Site
        {
          OFFSET 2.6618 -4.2699 12.3931
        }
      }
    }
  }
  JOINT rThigh
  {
    OFFSET -8.367 -8.2066 0.5982
    CHANNELS 6 Xposition Yposition Zposition Zrotation Xrotation Yrotation
    JOINT rShin
    {
      OFFSET -2.1923 -43.463 -0.4931
      CHANNELS 6 Xposition Yposition Zposition Zrotation Xrotation Yrotation
      JOINT rFoot
      {
        OFFSET -0.7333 -45.8593 -2.6451
        CHANNELS 6 Xposition Yposition Zposition Zrotation Xrotation Yrotation
        End Site
        {
          OFFSET -2.6618 -4.2699 12.3931
        }
      }
    }
  }
}
MOTION
Frames:	4
Frame Time:	0.0333333
0 90.174 2.4664 0 0 -0 0 -1.186 -1.5018 0 0 -0 0 9.964 0.2134 0 0 -0 0 13.134 -3.2573 0 0 -0 0 20.686 -1.6905 0 0 -0 0 7.238 -0.1237 0 0 -0 1.7069 20.075 5.0056 0 0 -0 13.6458 -0.047 -4.849 1.66051 0.0835086 5.75766 28.3255 -0.9759 2.2888 -0.0175111 0.895433 15.7816 22.1583 -0.53 10.8316 7.95139e-016 -1.98785e-016 -0 0.786 0.112 2.5817 5.46658e-016 -3.97569e-016 -0 0.3601 -0.878 4.2331 5.96354e-016 0 -0 1.8127 -1.216 2.2227 3.97569e-016 1.98785e-016 9.54166e-015 0.9571 1.114 1.7695 1.49089e-016 -3.97569e-016 -0 4.1246 0.487 4.1451 6.4605e-016 0 3.18055e-015 3.4052 -1.454 2.7682 5.96354e-016 0 3.18055e-015 1.4531 -1.795 1.2713 8.94531e-016 -1.98785e-016 6.36111e-015 5.6954 0.21 2.1184 6.4605e-016 0 3.18055e-015 3.9766 -1.54 2.3863 5.96354e-016 0 3.18055e-015 1.4042 -1.926 1.125 8.94531e-016 -1.98785e-016 6.36111e-015 2.0956 0.66 -0.3894 1.49089e-016 -3.97569e-016 -0 5.0395 -0.09 2.4971 6.4605e-016 0 3.18055e-015 3.7921 -1.552 1.4806 5.96354e-016 0 3.18055e-015 1.4655 -1.808 0.9609 8.94531e-016 -1.98785e-016 6.36111e-015 4.9141 -1.269 0.3591 6.4605e-016 0 3.18055e-015 3.1477 -1.685 0.8462 5.96354e-016 0 3.18055e-015 0.8055 -1.585 0.7955 8.94531e-016 -1.98785e-016 6.36111e-015 -1.7069 20.075 5.0056 0 0 -0 -13.6458 -0.047 -4.849 -1.4496 0.0636048 -5.0245 -28.3255 -0.9759 2.2888 -1.74811 1.20616 -16.8394 -22.1583 -0.53 10.8316 -1.19271e-015 1.98785e-016 -3.18055e-015 -0.786 0.112 2.5817 -3.97569e-016 1.98785e-016 -3.18055e-015 -0.3601 -0.878 4.2331 -2.98177e-016 1.98785e-016 -3.18055e-015 -1.8127 -1.216 2.2227 -2.98177e-016 3.97569e-016 -0 -0.9571 1.114 1.7695 4.96962e-016 0 -6.36111e-015 -4.1246 0.487 4.1451 -9.93923e-017 3.97569e-016 -0 -3.4052 -1.454 2.7682 -8.94531e-016 5.96354e-016 -0 -1.4531 -1.795 1.2713 -3.97569e-016 3.97569e-016 -0 -5.6954 0.21 2.1184 -9.93923e-017 3.97569e-016 -0 -3.9766 -1.54 2.3863 -8.94531e-016 5.96354e-016 -0 -1.4042 -1.926 1.125 -3.97569e-016 3.97569e-016 -0 -2.0956 0.66 -0.3894 4.96962e-016 0 -6.36111e-015 -5.0395 -0.09 2.4971 -9.93923e-017 3.97569e-016 -0 -3.7921 -1.552 1.4806 -8.94531e-016 5.96354e-016 -0 -1.4655 -1.808 0.9609 -3.97569e-016 3.97569e-016 -0 -4.9141 -1.269 0.3592 -9.93923e-017 3.97569e-016 -0 -3.1477 -1.685 0.8462 -8.94531e-016 5.96354e-016 -0 -0.8055 -1.585 0.7955 -3.97569e-016 3.97569e-016 -0 8.367 -8.2066 0.5982 -4.66115 -1.03232 0.120763 2.1923 -43.463 -0.4932 0.00990601 1.55097 0.177175 0.7333 -45.8593 -2.6451 4.65196 -0.54114 -0.255042 -8.367 -8.2066 0.5982 4.66115 -1.03222 -0.120763 -2.1923 -43.463 -0.4931 -0.00990459 1.5509 -0.177176 -0.7333 -45.8593 -2.6451 -4.65196 -0.541171 0.255041 
-7.8579 29.3124 0.90307 66.6667 1.86792e-007 5.1864 0 -1.186 -1.5018 0.138876 4.05128 -0.123207 0 9.964 0.2134 0.287785 8.1022 -0.257294 7.10543e-015 13.134 -3.2573 0.287748 8.1022 -0.25729 3.55271e-015 20.686 -1.6905 0.0144139 5.8995 -0.00414142 7.10543e-015 7.238 -0.1237 -9.67807 7.21902 1.66431 1.7069 20.075 5.0056 -25.1874 4.09004 -14.494 13.6458 -0.047 -4.849 -11.5904 2.68059 -24.3046 28.3255 -0.9759 2.2888 -15.8688 14.0784 7.22165 22.1583 -0.53 10.8316 -4.92604 1.94338 -0.0852365 0.786 0.112 2.5817 1.19271e-015 -3.18055e-015 -3.97569e-016 0.3601 -0.878 4.2331 -6.11631e-008 3.16462e-006 -1.44774e-007 1.8127 -1.216 2.2227 -3.95578e-007 -7.64538e-009 -1.59262e-007 0.9571 1.114 1.7695 1.19271e-015 -3.18055e-015 -3.97569e-016 4.1246 0.487 4.1451 2.38542e-015 -1.27222e-014 5.96354e-015 3.4052 -1.454 2.7682 -6.11631e-008 3.16462e-006 -1.44774e-007 1.4531 -1.795 1.2713 -3.95578e-007 -7.64538e-009 -1.59262e-007 5.6954 0.21 2.1184 2.38542e-015 -1.27222e-014 5.96354e-015 3.9766 -1.54 2.3863 -6.11631e-008 3.16462e-006 -1.44774e-007 1.4042 -1.926 1.125 -3.95578e-007 -7.64538e-009 -1.59262e-007 2.0956 0.66 -0.3894 1.19271e-015 -3.18055e-015 -3.97569e-016 5.0395 -0.09 2.4971 2.38542e-015 -1.27222e-014 5.96354e-015 3.7921 -1.552 1.4806 -6.11631e-008 3.16462e-006 -1.44774e-007 1.4655 -1.808 0.9609 -3.95578e-007 -7.64538e-009 -1.59262e-007 4.9141 -1.269 0.3591 2.38542e-015 -1.27222e-014 5.96354e-015 3.1477 -1.685 0.8462 -6.11631e-008 3.16462e-006 -1.44774e-007 0.8055 -1.585 0.7955 -3.95578e-007 -7.64538e-009 -1.59262e-007 -1.7069 20.075 5.0056 -0.464407 3.25112 -3.97059 -13.6458 -0.047 -4.849 59.2801 -1.01118 -23.1661 -28.3255 -0.9759 2.2888 -12.8258 -1.23935 60.8965 -22.1583 -0.53 10.8316 0.197995 -11.4961 4.72895 -0.786 0.112 2.5817 5.79043e-007 1.62589e-006 -2.90395e-006 -0.3601 -0.878 4.2331 -6.63751e-006 -2.07558e-006 9.32912e-007 -1.8127 -1.216 2.2227 5.79043e-007 1.62589e-006 -2.90395e-006 -0.9571 1.114 1.7695 9.14409e-015 1.59028e-015 3.18055e-015 -4.1246 0.487 4.1451 5.79043e-007 1.62589e-006 -2.90395e-006 -3.4052 -1.454 2.7682 -6.63751e-006 -2.07558e-006 9.32912e-007 -1.4531 -1.795 1.2713 5.79043e-007 1.62589e-006 -2.90395e-006 -5.6954 0.21 2.1184 5.79043e-007 1.62589e-006 -2.90395e-006 -3.9766 -1.54 2.3863 -6.63751e-006 -2.07558e-006 9.32912e-007 -1.4042 -1.926 1.125 5.79043e-007 1.62589e-006 -2.90395e-006 -2.0956 0.66 -0.3894 9.14409e-015 1.59028e-015 3.18055e-015 -5.0395 -0.09 2.4971 5.79043e-007 1.62589e-006 -2.90395e-006 -3.7921 -1.552 1.4806 -6.63751e-006 -2.07558e-006 9.32912e-007 -1.4655 -1.808 0.9609 5.79043e-007 1.62589e-006 -2.90395e-006 -4.9141 -1.269 0.3592 5.79043e-007 1.62589e-006 -2.90395e-006 -3.1477 -1.685 0.8462 -6.63751e-006 -2.07558e-006 9.32912e-007 -0.8055 -1.585 0.7955 5.79043e-007 1.62589e-006 -2.90395e-006 8.367 -8.2066 0.5982 18.9344 -50.4131 47.4478 2.1923 -43.463 -0.4932 -51.6985 71.8946 59.1256 0.7333 -45.8593 -2.6451 4.68139 16.2631 -4.97746 -8.367 -8.2066 0.5982 -13.8277 -43.4537 -23.2954 -2.1923 -43.463 -0.4931 3.21595 51.2133 -4.95547 -0.7333 -45.8593 -2.6451 -6.44078 12.948 0.50262 
-7.84508 0.00883603 0.74169 96.6667 -2.39586e-007 7.52028 0 -1.186 -1.5018 0.199643 5.90271 -0.185075 0 9.964 0.2134 0.421944 11.8047 -0.394118 -2.22045e-016 13.134 -3.2573 0.421957 11.8047 -0.39412 1.55431e-015 20.686 -1.6905 -0.0537783 8.68141 0.0146776 -6.66134e-016 7.238 -0.1237 -14.2762 10.4595 2.46067 1.7069 20.075 5.0056 -35.5206 5.51639 -20.6103 13.6458 -0.047 -4.849 -16.6322 3.05736 -38.0736 28.3255 -0.9759 2.2888 -22.5964 19.6521 2.28286 22.1583 -0.53 10.8316 -6.63437 2.62626 0.306928 0.786 0.112 2.5817 3.97569e-015 -6.36111e-015 -7.95139e-016 0.3601 -0.878 4.2331 6.24483e-007 -2.07415e-007 6.7324e-007 1.8127 -1.216 2.2227 -7.95139e-016 0 3.97569e-016 0.9571 1.114 1.7695 2.38542e-015 -6.36111e-015 -1.19271e-015 4.1246 0.487 4.1451 1.58901e-030 -1.27222e-014 7.15625e-015 3.4052 -1.454 2.7682 6.24483e-007 -2.07415e-007 6.7324e-007 1.4531 -1.795 1.2713 -0 0 3.97569e-016 5.6954 0.21 2.1184 1.58901e-030 -1.27222e-014 7.15625e-015 3.9766 -1.54 2.3863 6.24483e-007 -2.07415e-007 6.7324e-007 1.4042 -1.926 1.125 -0 0 3.97569e-016 2.0956 0.66 -0.3894 2.38542e-015 -6.36111e-015 -1.19271e-015 5.0395 -0.09 2.4971 1.58901e-030 -1.27222e-014 7.15625e-015 3.7921 -1.552 1.4806 6.24483e-007 -2.07415e-007 6.7324e-007 1.4655 -1.808 0.9609 -0 0 3.97569e-016 4.9141 -1.269 0.3591 1.58901e-030 -1.27222e-014 7.15625e-015 3.1477 -1.685 0.8462 6.24483e-007 -2.07415e-007 6.7324e-007 0.8055 -1.585 0.7955 -0 0 3.97569e-016 -1.7069 20.075 5.0056 -0.812972 5.03182 -5.93261 -13.6458 -0.047 -4.849 86.5879 -1.44319 -31.5025 -28.3255 -0.9759 2.2888 -14.7845 -11.4643 94.7397 -22.1583 -0.53 10.8316 1.01052 -16.478 7.68682 -0.786 0.112 2.5817 -4.41391e-032 3.97569e-016 6.36111e-015 -0.3601 -0.878 4.2331 -1.98785e-016 7.95139e-016 3.18055e-015 -1.8127 -1.216 2.2227 -1.78906e-015 -3.97569e-016 -3.18055e-015 -0.9571 1.114 1.7695 1.59028e-015 -3.97569e-016 6.36111e-015 -4.1246 0.487 4.1451 -9.93923e-016 0 6.36111e-015 -3.4052 -1.454 2.7682 -2.38542e-015 1.19271e-015 -3.18055e-015 -1.4531 -1.795 1.2713 -2.5842e-015 0 -3.18055e-015 -5.6954 0.21 2.1184 -9.93923e-016 0 6.36111e-015 -3.9766 -1.54 2.3863 -2.38542e-015 1.19271e-015 -3.18055e-015 -1.4042 -1.926 1.125 -2.5842e-015 0 -3.18055e-015 -2.0956 0.66 -0.3894 1.59028e-015 -3.97569e-016 6.36111e-015 -5.0395 -0.09 2.4971 -9.93923e-016 0 6.36111e-015 -3.7921 -1.552 1.4806 -2.38542e-015 1.19271e-015 -3.18055e-015 -1.4655 -1.808 0.9609 -2.5842e-015 0 -3.18055e-015 -4.9141 -1.269 0.3592 -9.93923e-016 0 6.36111e-015 -3.1477 -1.685 0.8462 -2.38542e-015 1.19271e-015 -3.18055e-015 -0.8055 -1.585 0.7955 -2.5842e-015 0 -3.18055e-015 8.367 -8.2066 0.5982 58.0959 -49.5333 90.2672 2.1923 -43.463 -0.4932 -132.901 59.457 137.818 0.7333 -45.8593 -2.6451 5.80611 26.5039 -6.37116 -8.367 -8.2066 0.5982 -43.8884 -58.7339 -51.3224 -2.1923 -43.463 -0.4931 15.2273 77.6763 -16.2404 -0.7333 -45.8593 -2.6451 -7.89978 17.639 -0.545245 
-7.7802 6.45798 0.830533 90 -3.97569e-016 7.00164 1.77636e-015 -1.186 -1.5018 0.185971 5.5538 -0.171874 0 9.964 0.2134 0.391556 11.107 -0.364543 1.77636e-015 13.134 -3.2573 0.391547 11.107 -0.364552 -8.88178e-016 20.686 -1.6905 -0.209602 8.34583 0.0571167 0 7.238 -0.1237 -13.4768 9.73262 2.33965 1.7069 20.075 5.0056 -32.481 4.75474 -18.2259 13.6458 -0.047 -4.849 -15.606 2.95241 -35.4966 28.3255 -0.9759 2.2888 -22.7687 18.4523 1.5892 22.1583 -0.53 10.8316 -5.11958 2.05377 1.06292 0.786 0.112 2.5817 -7.95139e-016 0 7.95139e-016 0.3601 -0.878 4.2331 -6.31112e-007 -2.00705e-007 -1.58127e-006 1.8127 -1.216 2.2227 -3.21965e-007 -2.93073e-006 1.45337e-006 0.9571 1.114 1.7695 0 0 -0 4.1246 0.487 4.1451 7.95139e-016 0 5.96354e-015 3.4052 -1.454 2.7682 -6.31112e-007 -2.00705e-007 -1.58127e-006 1.4531 -1.795 1.2713 -3.21965e-007 -2.93073e-006 1.45337e-006 5.6954 0.21 2.1184 7.95139e-016 0 5.96354e-015 3.9766 -1.54 2.3863 -6.31112e-007 -2.00705e-007 -1.58127e-006 1.4042 -1.926 1.125 -3.21965e-007 -2.93073e-006 1.45337e-006 2.0956 0.66 -0.3894 0 0 -0 5.0395 -0.09 2.4971 7.95139e-016 0 5.96354e-015 3.7921 -1.552 1.4806 -6.31112e-007 -2.00705e-007 -1.58127e-006 1.4655 -1.808 0.9609 -3.21965e-007 -2.93073e-006 1.45337e-006 4.9141 -1.269 0.3591 7.95139e-016 0 5.96354e-015 3.1477 -1.685 0.8462 -6.31112e-007 -2.00705e-007 -1.58127e-006 0.8055 -1.585 0.7955 -3.21965e-007 -2.93073e-006 1.45337e-006 -1.7069 20.075 5.0056 -1.38599 5.37256 -5.86074 -13.6458 -0.047 -4.849 81.0722 -1.49178 -30.0251 -28.3255 -0.9759 2.2888 -14.9772 -8.75273 87.7715 -22.1583 -0.53 10.8316 1.05766 -15.5999 7.94035 -0.786 0.112 2.5817 -1.9516e-007 -5.23527e-007 3.20598e-006 -0.3601 -0.878 4.2331 3.40114e-006 -5.12044e-007 -3.01082e-006 -1.8127 -1.216 2.2227 -1.9516e-007 -5.23527e-007 3.20598e-006 -0.9571 1.114 1.7695 3.57812e-015 -1.09332e-015 6.36111e-015 -4.1246 0.487 4.1451 -1.9516e-007 -5.23527e-007 3.20598e-006 -3.4052 -1.454 2.7682 3.40114e-006 -5.12044e-007 -3.01082e-006 -1.4531 -1.795 1.2713 -1.9516e-007 -5.23527e-007 3.20598e-006 -5.6954 0.21 2.1184 -1.9516e-007 -5.23527e-007 3.20598e-006 -3.9766 -1.54 2.3863 3.40114e-006 -5.12044e-007 -3.01082e-006 -1.4042 -1.926 1.125 -1.9516e-007 -5.23527e-007 3.20598e-006 -2.0956 0.66 -0.3894 3.57812e-015 -1.09332e-015 6.36111e-015 -5.0395 -0.09 2.4971 -1.9516e-007 -5.23527e-007 3.20598e-006 -3.7921 -1.552 1.4806 3.40114e-006 -5.12044e-007 -3.01082e-006 -1.4655 -1.808 0.9609 -1.9516e-007 -5.23527e-007 3.20598e-006 -4.9141 -1.269 0.3592 -1.9516e-007 -5.23527e-007 3.20598e-006 -3.1477 -1.685 0.8462 3.40114e-006 -5.12044e-007 -3.01082e-006 -0.8055 -1.585 0.7955 -1.9516e-007 -5.23527e-007 3.20598e-006 8.367 -8.2066 0.5982 49.9244 -51.8447 81.6469 2.1923 -43.463 -0.4932 -123.991 64.9252 129.701 0.7333 -45.8593 -2.6451 5.45515 23.8461 -5.95874 -8.367 -8.2066 0.5982 -35.5576 -56.4859 -43.5431 -2.1923 -43.463 -0.4931 9.7384 72.5951 -11.7617 -0.7333 -45.8593 -2.6451 -7.69064 16.1685 0.550056 
